# xmcd
#
# Track frame offsets:
# 183
# 15370
# 34458
# 65583
# 81408
# 104433
# 118233
# 131358
# 144333
# 157158
# 172383
# 193533
# 206808
# 219183
# 241383
# 255183
# 266508
# 288258
#
# Disc length: 4292 seconds
#
#
# Revision: 4
# Processed by: cddbd v1.5.2PL0 Copyright (c) Steve Scherf et al.
# Submitted via: FreeRIP 2.35 
#
DISCID=0d10c212
DTITLE=Various Artist - Red White and Blues
DYEAR=1990
DGENRE=Blues
TTITLE0=Drinkin´on my bed - Rob Hoeke
TTITLE1=Livin´Blues -  L. B. Boogie
TTITLE2=Somebody will know someday - Cuby and Blizzards
TTITLE3=Spoonful - Q '65
TTITLE4=Real, real gone - Oscar Benton Blues Band
TTITLE5=Homework - John the Revelator
TTITLE6=Travellin´ in the USA - Bintangs
TTITLE7=Murphy McCoy - Livin' Blues
TTITLE8=Ann - Q '65
TTITLE9=Thursday night - Cuby and Blizzards
TTITLE10=Battlefield of love - Blues Dimension
TTITLE11=Harp blowing blues - Indiscrimination
TTITLE12=He didn´t wonna go home - Bintangs
TTITLE13=Just make me a pallet - Rob Hoeke
TTITLE14=Distant Smile - Cuby and Blizzards
TTITLE15=Bowlegged Woman - Livin' Blues
TTITLE16=Ramblin´ on my mind - Q '65 /
TTITLE17=I left my blues in San Francisco - Oscar Benton Blues Band
EXTD=
EXTT0=
EXTT1=
EXTT2=
EXTT3=
EXTT4=
EXTT5=
EXTT6=
EXTT7=
EXTT8=
EXTT9=
EXTT10=
EXTT11=
EXTT12=
EXTT13=
EXTT14=
EXTT15=
EXTT16=
EXTT17=
PLAYORDER=
